<?xml version="1.0" encoding="iso-8859-1"?>
<!-- Generator: Adobe Illustrator 19.0.0, SVG Export Plug-In . SVG Version: 6.00 Build 0)  -->
<svg version="1.1" id="Layer_1" xmlns="http://www.w3.org/2000/svg" xmlns:xlink="http://www.w3.org/1999/xlink" x="0px" y="0px"
	 viewBox="0 0 290.626 290.626" style="enable-background:new 0 0 290.626 290.626;" xml:space="preserve">
<g>
	<g>
		<g id="XMLID_5_">
			<g>
				<path style="fill:#F2CE75;" d="M198.069,257.432c0,4.554,3.656,8.242,8.21,8.242h11.193c-8.306,5.324-18.152,8.435-28.735,8.435
					h-87.585c-19.756,0-37.01-10.776-46.342-26.811h87.233c4.522,0,8.21-3.688,8.21-8.242s-3.688-8.242-8.21-8.242H48.491
					c-0.706-3.464-1.09-7.024-1.09-10.68v-23.7h60.902c4.522,0,8.178-3.688,8.178-8.242s-3.656-8.242-8.178-8.242H47.401v-11.29
					h195.087v25.432h-79.824c-4.522,0-8.21,3.688-8.21,8.242s3.688,8.242,8.21,8.242h79.824v9.557c0,11-3.303,21.231-8.948,29.794
					c-1.026-0.481-2.149-0.738-3.367-0.738H206.28C201.725,249.19,198.069,252.878,198.069,257.432z"/>
				<path style="fill:#F2CE75;" d="M250.826,136.173c3.528,1.411,6.799,4.682,6.799,8.691c0,4.041-3.271,7.312-7.28,7.312H40.313
					c-4.009,0-7.28-3.271-7.28-7.312c0-4.009,3.271-7.28,7.729-8.691H250.826z"/>
				<path style="fill:#2D213F;" d="M274.013,144.864c0,10.102-6.286,18.697-15.105,22.161v53.109
					c0,38.87-31.494,70.492-70.171,70.492h-87.585c-38.677,0-70.139-31.622-70.139-70.492v-53.398
					c-8.467-3.624-14.4-12.059-14.4-21.872c0-12.957,10.391-23.508,23.219-23.764V92.685C39.832,41.564,81.235,0,132.1,0h23.636
					c50.864,0,92.268,41.564,92.268,92.685V121.1h2.341C263.397,121.099,274.013,131.747,274.013,144.864z M257.625,144.864
					c0-4.009-3.271-7.28-6.799-8.691H40.762c-4.458,1.411-7.729,4.682-7.729,8.691c0,4.041,3.271,7.312,7.28,7.312h210.032
					C254.353,152.176,257.625,148.905,257.625,144.864z M242.487,220.134v-9.557h-79.824c-4.522,0-8.21-3.688-8.21-8.242
					s3.688-8.242,8.21-8.242h79.824V168.66H47.401v11.289h60.902c4.522,0,8.178,3.688,8.178,8.242s-3.656,8.242-8.178,8.242H47.401
					v23.7c0,3.656,0.385,7.216,1.09,10.68h93.551c4.522,0,8.21,3.688,8.21,8.242s-3.688,8.242-8.21,8.242H54.809
					c9.333,16.035,26.587,26.811,46.342,26.811h87.585c10.583,0,20.429-3.111,28.735-8.435h-11.193c-4.554,0-8.21-3.688-8.21-8.242
					s3.656-8.242,8.21-8.242h23.893c1.219,0,2.341,0.257,3.367,0.738C239.184,241.365,242.487,231.134,242.487,220.134z
					 M231.583,121.099V92.685c0-42.013-34.027-76.2-75.847-76.2H132.1c-41.82,0-75.847,34.187-75.847,76.2V121.1L231.583,121.099
					L231.583,121.099z"/>
			</g>
		</g>
		<path style="fill:#FEDE94;" d="M81.287,171.912v8.037h27.016c4.522,0,8.178,3.688,8.178,8.242s-3.656,8.242-8.178,8.242H81.287
			v26.327c0,2.784,0.382,5.471,1.026,8.053h59.729c4.522,0,8.21,3.688,8.21,8.242s-3.688,8.242-8.21,8.242H92.216
			c5.875,5.317,13.646,8.585,22.196,8.585h83.814c0.718-3.813,4.031-6.693,8.056-6.693h23.893c0.76,0,1.466,0.132,2.152,0.324
			c0.734-0.375,1.459-0.754,2.174-1.158c5.042-8.236,7.989-17.879,7.989-28.222v-9.557h-79.827c-4.522,0-8.21-3.688-8.21-8.242
			s3.688-8.242,8.21-8.242h79.824V168.66H81.585C81.399,169.719,81.287,170.803,81.287,171.912z"/>
	</g>
</g>
<g>
</g>
<g>
</g>
<g>
</g>
<g>
</g>
<g>
</g>
<g>
</g>
<g>
</g>
<g>
</g>
<g>
</g>
<g>
</g>
<g>
</g>
<g>
</g>
<g>
</g>
<g>
</g>
<g>
</g>
</svg>
