<?xml version="1.0" encoding="iso-8859-1"?>
<!-- Generator: Adobe Illustrator 19.0.0, SVG Export Plug-In . SVG Version: 6.00 Build 0)  -->
<svg version="1.1" id="Layer_1" xmlns="http://www.w3.org/2000/svg" xmlns:xlink="http://www.w3.org/1999/xlink" x="0px" y="0px"
	 viewBox="0 0 358.028 358.028" style="enable-background:new 0 0 358.028 358.028;" xml:space="preserve">
<g id="XMLID_782_">
	<g id="XMLID_785_">
		<path id="XMLID_784_" style="fill:#2B7B57;" d="M260.946,358.028H97.082c-27.584,0-49.946-22.361-49.946-49.946V45.787h263.756
			v262.295C310.892,335.666,288.53,358.028,260.946,358.028z"/>
	</g>
	<g id="XMLID_786_">
		<path id="XMLID_787_" style="fill:#9FCBA5;" d="M243.699,257.277h-66.123l-0.239,46.849H229.7c8.76,0,16.851-4.686,21.21-12.285
			l6.471-11.279l-0.439-0.25L243.699,257.277z"/>
		<path id="XMLID_790_" style="fill:#9FCBA5;" d="M147.44,199.949l-40.5-23.551l-26.124,45.445
			c-4.35,7.566-4.337,16.877,0.034,24.432l6.366,11.003h27.277L147.44,199.949z"/>
		<path id="XMLID_793_" style="fill:#9FCBA5;" d="M179.09,144.886c0.004,0,32.817,57.089,32.817,57.089l40.742-23.143
			l-26.101-45.406c-4.362-7.588-12.447-12.266-21.2-12.266H192.47v0.449L179.09,144.886z"/>
		<path id="XMLID_796_" style="fill:#49B86E;" d="M162.696,244.53h-0.242c-2.846,0-5.153,2.307-5.153,5.153v7.593H87.22
			l20.044,34.642c4.371,7.555,12.437,12.207,21.165,12.207H157.3v7.589c0,2.846,2.307,5.153,5.153,5.153h0.006
			c1.367,0,2.678-0.543,3.644-1.509l31.134-31.134c2.013-2.013,2.012-5.276-0.001-7.289l-19.665-19.66l-11.231-11.236
			C165.374,245.074,164.063,244.53,162.696,244.53z"/>
		<path id="XMLID_799_" style="fill:#49B86E;" d="M165.908,193.4l0.118-0.206c1.418-2.468,0.567-5.618-1.901-7.036l-6.584-3.783
			l21.548-37.488l13.38-23.279v-0.447h-39.864c-8.813,0-16.944,4.742-21.283,12.413l-14.396,25.45l-6.582-3.782
			c-2.467-1.418-5.616-0.567-7.035,1.899l-0.003,0.005c-0.682,1.185-0.864,2.592-0.508,3.912l4.142,15.339l7.332,27.165
			c0.742,2.748,3.57,4.374,6.318,3.632l42.192-11.388C164.102,195.451,165.227,194.585,165.908,193.4z"/>
		<path id="XMLID_802_" style="fill:#49B86E;" d="M262.629,196.204l6.585-3.785c2.468-1.419,3.318-4.571,1.898-7.038l0,0
			c-0.681-1.184-1.805-2.049-3.123-2.405l-42.513-11.48c-2.748-0.742-5.577,0.884-6.319,3.632l-11.388,42.185
			c-0.356,1.319-0.174,2.726,0.507,3.911l0.12,0.208c1.418,2.467,4.568,3.318,7.035,1.9l6.581-3.781l21.686,37.726l13.242,23.035
			l0.439,0.25l19.856-34.616c4.326-7.542,4.322-16.815-0.012-24.353L262.629,196.204z"/>
	</g>
	<g id="XMLID_15_">
		<path id="XMLID_806_" style="fill:#9FCBA5;" d="M228.659,48.95h-99.291V23.83c0-13.161,10.669-23.83,23.83-23.83h51.632
			c13.161,0,23.83,10.669,23.83,23.83v25.12H228.659z"/>
	</g>
	<g id="XMLID_808_">
		<path id="XMLID_807_" style="fill:#9FCBA5;" d="M327.334,63.177L327.334,63.177c0-16.065-13.023-29.088-29.088-29.088H59.782
			c-16.065,0-29.088,13.023-29.088,29.088l0,0c0,16.065,13.023,29.088,29.088,29.088h238.465
			C314.311,92.265,327.334,79.242,327.334,63.177z"/>
	</g>
</g>
<g>
</g>
<g>
</g>
<g>
</g>
<g>
</g>
<g>
</g>
<g>
</g>
<g>
</g>
<g>
</g>
<g>
</g>
<g>
</g>
<g>
</g>
<g>
</g>
<g>
</g>
<g>
</g>
<g>
</g>
</svg>
